<svg width="200" height="48" viewBox="0 0 200 48" fill="none" xmlns="http://www.w3.org/2000/svg">
<path d="M90.5952 22.7973C90.5952 19.4517 88.299 17.2412 85.2573 17.2412C82.2451 17.2412 79.9492 19.4517 79.9492 22.7973C79.9492 26.1728 82.2451 28.3833 85.2573 28.3833C88.299 28.3833 90.5952 26.1728 90.5952 22.7973ZM93.4879 22.7973C93.4879 27.6663 90.1181 30.8926 85.4957 30.8926C83.2594 30.8926 81.2909 30.0262 79.9789 28.3236V36.5083H77.1162V14.8814H79.8595V17.3904C81.1419 15.6281 83.1695 14.7319 85.4957 14.7319C90.1181 14.7319 93.4879 17.9582 93.4879 22.7973Z" fill="black"/>
<path d="M106.339 29.7873C105.474 30.534 104.162 30.8926 102.88 30.8926C99.6894 30.8926 97.87 29.13 97.87 25.9338V17.2412H95.1861V14.8813H97.87V11.4162H100.733V14.8813H105.265V17.2412H100.733V25.8144C100.733 27.5171 101.627 28.4729 103.208 28.4729C104.043 28.4729 104.848 28.2041 105.444 27.7262L106.339 29.7873Z" fill="black"/>
<path d="M109.878 14.9247H112.74V30.7135H109.878V14.9247Z" fill="black"/>
<path d="M144.359 21.6025V30.7132H141.496V21.9311C141.496 18.8244 140.006 17.301 137.411 17.301C134.548 17.301 132.67 19.1232 132.67 22.5584V30.7132H129.806V21.9311C129.806 18.8244 128.316 17.301 125.721 17.301C122.858 17.301 120.98 19.1232 120.98 22.5584V30.7132H118.117V14.8814H120.86V17.2413C121.993 15.6282 123.931 14.7321 126.317 14.7321C128.733 14.7321 130.76 15.6879 131.804 17.6594C132.997 15.8672 135.204 14.7321 137.887 14.7321C141.735 14.7321 144.359 16.9425 144.359 21.6025Z" fill="black"/>
<path d="M149.601 14.8814H152.464V30.7132H149.601V14.8814Z" fill="black"/>
<path d="M169.674 28.3534V30.7134H156.434V28.8612L165.768 17.2412H156.612V14.8814H169.436V16.7633L160.101 28.3534H169.674Z" fill="black"/>
<path d="M174.654 21.6921H184.792C184.494 19.0336 182.496 17.1515 179.722 17.1515C176.979 17.1515 174.951 19.0037 174.654 21.6921ZM187.477 23.7533H174.654C175.01 26.5312 177.247 28.3833 180.379 28.3833C182.228 28.3833 183.778 27.756 184.941 26.4714L186.523 28.3237C185.091 29.9963 182.913 30.8927 180.289 30.8927C175.191 30.8927 171.791 27.5172 171.791 22.7974C171.791 18.1075 175.16 14.7321 179.722 14.7321C184.286 14.7321 187.536 18.0179 187.536 22.8869C187.536 23.1259 187.506 23.4844 187.477 23.7533Z" fill="black"/>
<path d="M200 14.7321V17.5102C199.762 17.4803 199.553 17.4803 199.343 17.4803C196.272 17.4803 194.364 19.362 194.364 22.8272V30.7132H191.501V14.8814H194.244V17.54C195.259 15.6879 197.226 14.7321 200 14.7321Z" fill="black"/>
<path d="M111.309 11.7416L109.154 9.58359L111.309 7.42554L113.463 9.58359L111.309 11.7416Z" fill="#6439FF"/>
<path d="M152.555 11.1096H149.509V8.0578H152.555V11.1096Z" fill="black"/>
<path d="M73.7764 30.6542L64.4755 9.69171H61.2783L51.9774 30.6542H55.1745L62.877 13.2947L67.6082 23.9578L61.2505 23.9603L59.9154 26.8702L68.8631 26.8669L68.8813 26.8273L70.5793 30.6542H73.7764Z" fill="black"/>
<path d="M38.2159 5.89727L36.1376 3.81547L26.9419 13.0268V6.10352e-05H24.0028V15.9709V18.2607L24.5507 18.8094H25.3256L26.9419 17.1903L38.2159 5.89727Z" fill="#050C9C"/>
<path d="M39.8324 7.51645L26.5545 20.8168L28.6328 22.8985L41.9107 9.59829L39.8324 7.51645Z" fill="#050C9C"/>
<path d="M20.3941 18.8095H21.169L21.7169 18.2607V15.971L21.7167 0H18.7777V13.0268L9.58204 3.81554L7.50376 5.89734L18.7777 17.1903L20.3941 18.8095Z" fill="#050C9C"/>
<path d="M0 21.7536H15.9438H18.2299L18.7778 21.2048V20.4287L17.1613 18.8096L5.8873 7.51645L3.80902 9.59817L13.0048 18.8096H0V21.7536Z" fill="#050C9C"/>
<path d="M7.50376 39.8998L9.58204 41.9816L22.8599 28.6813L20.7816 26.5995L7.50376 39.8998Z" fill="#050C9C"/>
<path d="M18.7778 25.3684V24.5922L18.2298 24.0435H15.944H0V26.9876H13.0048L3.80902 36.1989L5.8873 38.2807L17.1613 26.9876L18.7778 25.3684Z" fill="#050C9C"/>
<path d="M47.3372 20.5198V25.4589L29.5724 25.459L41.4487 37.3554L37.2922 41.519L25.4159 29.6225V47.4173H20.4849V20.5198H47.3372Z" fill="#6439FF"/>
</svg>
