<svg width="150" height="40" viewBox="0 0 150 40" fill="current" xmlns="http://www.w3.org/2000/svg">
<path d="M16.4404 8.78906H25.4639C27.0264 8.78906 28.3984 9.09668 29.5801 9.71191C30.7715 10.3271 31.6895 11.2012 32.334 12.334C32.9883 13.4668 33.3154 14.7705 33.3154 16.2451C33.3154 17.7393 32.9785 19.043 32.3047 20.1562C31.6406 21.2598 30.7031 22.1143 29.4922 22.7197C28.2812 23.3252 26.875 23.6279 25.2734 23.6279H19.8096V19.2627H24.1895C24.8828 19.2627 25.4785 19.1406 25.9766 18.8965C26.4746 18.6523 26.8506 18.3057 27.1045 17.8564C27.3682 17.4072 27.5 16.8701 27.5 16.2451C27.5 15.6201 27.3682 15.083 27.1045 14.6338C26.8506 14.1846 26.4746 13.8428 25.9766 13.6084C25.4883 13.374 24.8926 13.2568 24.1895 13.2568H22.0068V30H16.4404V8.78906ZM42.6084 30H37.0713V8.78906H42.6084V30ZM56.1348 23.4668C55.5879 23.4863 55.0068 23.5107 54.3916 23.54L53.1611 23.6572C52.6631 23.7158 52.2676 23.8965 51.9746 24.1992C51.6816 24.502 51.5352 24.8682 51.5352 25.2979C51.5352 25.5908 51.6084 25.8447 51.7549 26.0596C51.9014 26.2744 52.1064 26.4404 52.3701 26.5576C52.6436 26.665 52.9463 26.7188 53.2783 26.7188C53.7471 26.7188 54.1865 26.6211 54.5967 26.4258C55.0068 26.2305 55.3291 25.957 55.5635 25.6055C55.8076 25.2441 55.9297 24.8291 55.9297 24.3604L55.8711 19.1162C55.8711 18.8135 55.7979 18.5596 55.6514 18.3545C55.5146 18.1396 55.3047 17.9785 55.0215 17.8711C54.7383 17.7637 54.4209 17.71 54.0693 17.71C53.4932 17.71 53.0244 17.8369 52.6631 18.0908C52.3115 18.3447 52.1016 18.7207 52.0332 19.2188H46.9209C46.999 18.2324 47.3213 17.334 47.8877 16.5234C48.4541 15.7129 49.2646 15.0732 50.3193 14.6045C51.374 14.126 52.6533 13.8867 54.1572 13.8867C55.6123 13.8867 56.8867 14.1113 57.9805 14.5605C59.084 15.0098 59.9336 15.6299 60.5293 16.4209C61.1348 17.2119 61.4375 18.1152 61.4375 19.1309V30H56.2373V27.7734H56.1201C55.8076 28.3301 55.4268 28.7939 54.9775 29.165C54.5381 29.5264 54.0303 29.7998 53.4541 29.9854C52.8877 30.1611 52.2383 30.249 51.5059 30.249C50.4707 30.249 49.5674 30.0781 48.7959 29.7363C48.0244 29.3848 47.4141 28.8623 46.9648 28.1689C46.5254 27.4658 46.3057 26.6113 46.3057 25.6055C46.3057 23.9453 46.8379 22.7148 47.9023 21.9141C48.9766 21.1035 50.4023 20.6494 52.1797 20.5518C52.541 20.5127 53.4199 20.4736 54.8164 20.4346L56.1055 20.376L56.1348 23.4668ZM68.3135 35.9766C67.2295 35.9766 66.3164 35.9473 65.5742 35.8887V31.7578L66.4824 31.8164C66.8828 31.8164 67.2881 31.8164 67.6982 31.8164C67.9912 31.8164 68.2354 31.792 68.4307 31.7432C68.6357 31.7041 68.8164 31.6211 68.9727 31.4941C69.1289 31.377 69.251 31.2061 69.3389 30.9814L69.4707 30.6738L63.8604 14.0918H69.6318L72.3125 25.1953H72.4883L75.1836 14.0918H81.0137L75.1543 31.377C74.666 32.8027 73.8848 33.9258 72.8105 34.7461C71.7363 35.5664 70.2373 35.9766 68.3135 35.9766ZM89.7646 30H84.2275V8.78906H89.7646V30ZM94.2236 14.0918H99.7607V30H94.2236V14.0918ZM96.9775 12.3633C96.4795 12.3633 96.0205 12.251 95.6006 12.0264C95.1807 11.792 94.8389 11.4795 94.5752 11.0889C94.3213 10.6982 94.1943 10.2734 94.1943 9.81445C94.1943 9.35547 94.3213 8.93066 94.5752 8.54004C94.8389 8.13965 95.1807 7.82715 95.6006 7.60254C96.0205 7.37793 96.4795 7.26562 96.9775 7.26562C97.4756 7.26562 97.9346 7.37793 98.3545 7.60254C98.7744 7.82715 99.1064 8.13965 99.3506 8.54004C99.6045 8.93066 99.7314 9.35547 99.7314 9.81445C99.7314 10.2734 99.6045 10.6982 99.3506 11.0889C99.1064 11.4795 98.7744 11.792 98.3545 12.0264C97.9346 12.251 97.4756 12.3633 96.9775 12.3633ZM113.463 19.2188C113.414 18.7207 113.185 18.3301 112.774 18.0469C112.364 17.7539 111.856 17.6074 111.251 17.6074C110.909 17.6074 110.592 17.6514 110.299 17.7393C110.016 17.8174 109.791 17.9443 109.625 18.1201C109.459 18.2861 109.376 18.4814 109.376 18.7061C109.356 18.9697 109.469 19.2041 109.713 19.4092C109.967 19.6143 110.387 19.7705 110.973 19.8779L114.181 20.4639C115.802 20.7568 117.003 21.2598 117.784 21.9727C118.575 22.6758 118.971 23.6084 118.971 24.7705C118.971 25.874 118.644 26.8457 117.989 27.6855C117.335 28.5156 116.437 29.1602 115.294 29.6191C114.161 30.0684 112.857 30.293 111.383 30.293C109.82 30.293 108.468 30.0732 107.325 29.6338C106.183 29.1846 105.284 28.5596 104.63 27.7588C103.985 26.958 103.604 26.0156 103.487 24.9316H108.995C109.103 25.4297 109.366 25.8203 109.786 26.1035C110.216 26.3867 110.763 26.5283 111.427 26.5283C111.808 26.5283 112.14 26.4844 112.423 26.3965C112.716 26.3086 112.945 26.1816 113.111 26.0156C113.277 25.8496 113.36 25.6494 113.36 25.415C113.36 25.0928 113.209 24.8389 112.906 24.6533C112.604 24.458 112.135 24.3018 111.5 24.1846L108.702 23.6865C107.091 23.4033 105.88 22.8711 105.069 22.0898C104.259 21.2988 103.858 20.2832 103.868 19.043C103.868 17.9395 104.156 17.0068 104.732 16.2451C105.318 15.4736 106.158 14.8877 107.252 14.4873C108.346 14.0869 109.645 13.8867 111.148 13.8867C112.643 13.8867 113.937 14.1016 115.03 14.5312C116.134 14.9512 116.988 15.5615 117.594 16.3623C118.199 17.1631 118.526 18.1152 118.575 19.2188H113.463ZM132.087 18.1055H121.76V14.0918H132.087V18.1055ZM129.333 10.2832V24.9023C129.333 25.1465 129.372 25.3467 129.45 25.5029C129.538 25.6592 129.665 25.7764 129.831 25.8545C129.997 25.9229 130.212 25.9619 130.476 25.9717C130.837 25.9912 131.447 25.9668 132.307 25.8984V30.0293C131.555 30.166 130.681 30.2344 129.685 30.2344C128.386 30.2344 127.297 30.0635 126.418 29.7217C125.549 29.3799 124.89 28.8574 124.44 28.1543C123.991 27.4414 123.776 26.543 123.796 25.459V10.2832H129.333Z" fill="current"/>
</svg>
