<svg width="152" height="31" viewBox="0 0 152 31" fill="none" xmlns="http://www.w3.org/2000/svg">
<path d="M9.08981 1.58C11.8698 1.58 13.8998 2.14 15.1798 3.26C16.4798 4.36 17.1298 5.93 17.1298 7.97C17.1298 8.87 16.9898 9.73 16.7098 10.55C16.4298 11.37 15.9598 12.11 15.2998 12.77C14.6398 13.43 13.7598 13.95 12.6598 14.33C11.5798 14.69 10.2498 14.87 8.66981 14.87H6.3598V23H3.0898V1.58H9.08981ZM8.87981 4.31H6.3598V12.14H8.3398C9.5398 12.14 10.5498 12.01 11.3698 11.75C12.1898 11.47 12.7998 11.04 13.1998 10.46C13.5998 9.86 13.7998 9.07 13.7998 8.09C13.7998 6.85 13.3998 5.91 12.5998 5.27C11.8198 4.63 10.5798 4.31 8.87981 4.31ZM27.2504 23H24.0704V0.199998H27.2504V23ZM41.6063 6.56C43.5863 6.56 45.0663 7.01 46.0463 7.91C47.0263 8.79 47.5163 10.17 47.5163 12.05V23H45.2363L44.6063 20.75H44.4863C44.0263 21.33 43.5463 21.81 43.0463 22.19C42.5663 22.57 42.0063 22.85 41.3663 23.03C40.7463 23.21 39.9863 23.3 39.0863 23.3C38.1263 23.3 37.2563 23.13 36.4763 22.79C35.7163 22.43 35.1163 21.89 34.6763 21.17C34.2363 20.45 34.0163 19.53 34.0163 18.41C34.0163 16.79 34.6463 15.55 35.9063 14.69C37.1663 13.81 39.0763 13.33 41.6363 13.25L44.3663 13.16V12.32C44.3663 11.08 44.0963 10.22 43.5563 9.74C43.0163 9.26 42.2563 9.02 41.2763 9.02C40.4763 9.02 39.6863 9.15 38.9063 9.41C38.1463 9.65 37.4263 9.93 36.7463 10.25L35.7863 7.94C36.5263 7.54 37.3963 7.21 38.3963 6.95C39.3963 6.69 40.4663 6.56 41.6063 6.56ZM42.1763 15.32C40.3563 15.38 39.0863 15.67 38.3663 16.19C37.6663 16.71 37.3163 17.44 37.3163 18.38C37.3163 19.22 37.5663 19.84 38.0663 20.24C38.5663 20.62 39.2163 20.81 40.0163 20.81C41.2563 20.81 42.2863 20.47 43.1063 19.79C43.9463 19.09 44.3663 18.04 44.3663 16.64V15.23L42.1763 15.32ZM52.8943 6.83H56.2843L59.6443 16.04C59.8043 16.52 59.9543 16.98 60.0943 17.42C60.2543 17.86 60.3943 18.3 60.5143 18.74C60.6343 19.16 60.7243 19.57 60.7843 19.97H60.9043C61.0243 19.49 61.1943 18.89 61.4143 18.17C61.6343 17.45 61.8643 16.73 62.1043 16.01L65.3143 6.83H68.7043L61.8343 25.01C61.4343 26.07 60.9643 26.99 60.4243 27.77C59.8843 28.55 59.2243 29.15 58.4443 29.57C57.6843 29.99 56.7443 30.2 55.6243 30.2C55.1443 30.2 54.7143 30.17 54.3343 30.11C53.9743 30.07 53.6643 30.02 53.4043 29.96V27.44C53.6243 27.48 53.8843 27.52 54.1843 27.56C54.5043 27.6 54.8343 27.62 55.1743 27.62C55.7943 27.62 56.3243 27.5 56.7643 27.26C57.2043 27.02 57.5743 26.68 57.8743 26.24C58.1943 25.82 58.4643 25.33 58.6843 24.77L59.3743 23L52.8943 6.83ZM91.8739 12.05C91.8739 14.45 91.4239 16.47 90.5239 18.11C89.6239 19.73 88.3339 20.95 86.6539 21.77C84.9939 22.59 82.9939 23 80.6539 23H74.5039V1.58H81.2539C83.4539 1.58 85.3439 1.98 86.9239 2.78C88.5039 3.58 89.7239 4.75 90.5839 6.29C91.4439 7.83 91.8739 9.75 91.8739 12.05ZM88.4539 12.14C88.4539 10.36 88.1639 8.89 87.5839 7.73C87.0039 6.57 86.1539 5.71 85.0339 5.15C83.9139 4.59 82.5539 4.31 80.9539 4.31H77.7739V20.24H80.3839C83.0839 20.24 85.1039 19.57 86.4439 18.23C87.7839 16.87 88.4539 14.84 88.4539 12.14ZM107.067 6.53C107.367 6.53 107.687 6.55 108.027 6.59C108.387 6.61 108.687 6.65 108.927 6.71L108.567 9.68C108.307 9.62 108.027 9.57 107.727 9.53C107.427 9.49 107.107 9.47 106.767 9.47C106.207 9.47 105.657 9.59 105.117 9.83C104.577 10.05 104.097 10.37 103.677 10.79C103.257 11.21 102.917 11.73 102.657 12.35C102.417 12.97 102.297 13.69 102.297 14.51V23H99.1172V6.83H101.637L102.057 9.71H102.207C102.527 9.13 102.927 8.6 103.407 8.12C103.887 7.62 104.437 7.23 105.057 6.95C105.677 6.67 106.347 6.53 107.067 6.53ZM128.527 14.87C128.527 16.23 128.347 17.43 127.987 18.47C127.627 19.51 127.117 20.39 126.457 21.11C125.797 21.83 124.987 22.38 124.027 22.76C123.087 23.12 122.037 23.3 120.877 23.3C119.797 23.3 118.797 23.12 117.877 22.76C116.957 22.38 116.157 21.83 115.477 21.11C114.797 20.39 114.267 19.51 113.887 18.47C113.527 17.43 113.347 16.23 113.347 14.87C113.347 13.09 113.647 11.58 114.247 10.34C114.867 9.1 115.747 8.16 116.887 7.52C118.027 6.86 119.387 6.53 120.967 6.53C122.447 6.53 123.747 6.86 124.867 7.52C126.007 8.16 126.897 9.1 127.537 10.34C128.197 11.58 128.527 13.09 128.527 14.87ZM116.617 14.87C116.617 16.09 116.767 17.14 117.067 18.02C117.367 18.9 117.837 19.58 118.477 20.06C119.117 20.52 119.937 20.75 120.937 20.75C121.937 20.75 122.747 20.52 123.367 20.06C124.007 19.58 124.477 18.9 124.777 18.02C125.077 17.14 125.227 16.09 125.227 14.87C125.227 13.65 125.067 12.62 124.747 11.78C124.447 10.92 123.977 10.26 123.337 9.8C122.717 9.34 121.907 9.11 120.907 9.11C119.407 9.11 118.317 9.62 117.637 10.64C116.957 11.66 116.617 13.07 116.617 14.87ZM143.657 6.53C145.597 6.53 147.157 7.23 148.337 8.63C149.517 10.03 150.107 12.11 150.107 14.87C150.107 16.71 149.837 18.26 149.297 19.52C148.757 20.78 147.997 21.73 147.017 22.37C146.037 22.99 144.897 23.3 143.597 23.3C142.777 23.3 142.057 23.19 141.437 22.97C140.817 22.75 140.287 22.47 139.847 22.13C139.407 21.79 139.037 21.43 138.737 21.05H138.557C138.597 21.39 138.637 21.81 138.677 22.31C138.717 22.81 138.737 23.27 138.737 23.69V30.2H135.557V6.83H138.167L138.587 8.99H138.737C139.057 8.55 139.437 8.14 139.877 7.76C140.317 7.38 140.837 7.08 141.437 6.86C142.057 6.64 142.797 6.53 143.657 6.53ZM142.847 9.17C141.867 9.17 141.077 9.36 140.477 9.74C139.877 10.12 139.437 10.7 139.157 11.48C138.897 12.24 138.757 13.21 138.737 14.39V14.87C138.737 16.11 138.857 17.16 139.097 18.02C139.357 18.88 139.787 19.54 140.387 20C141.007 20.44 141.847 20.66 142.907 20.66C143.807 20.66 144.537 20.42 145.097 19.94C145.677 19.44 146.107 18.76 146.387 17.9C146.687 17.02 146.837 16 146.837 14.84C146.837 13.08 146.507 11.7 145.847 10.7C145.207 9.68 144.207 9.17 142.847 9.17Z" fill="current"/>
<path d="M0.299805 13.28H151.697V14.78H0.299805V13.28Z" fill="black"/>
</svg>
