<svg width="130" height="60" viewBox="0 0 130 60" fill="none" xmlns="http://www.w3.org/2000/svg">
<path d="M75.4887 46.5C70.8553 46.5 66.972 44.8833 63.8387 41.65C60.7053 38.4167 59.1387 34.4667 59.1387 29.8C59.1387 25.1 60.7053 21.1333 63.8387 17.9C66.972 14.6667 70.8553 13.05 75.4887 13.05C80.122 13.05 84.0053 14.6667 87.1387 17.9C90.272 21.1333 91.8387 25.1 91.8387 29.8C91.8387 34.4667 90.272 38.4167 87.1387 41.65C84.0053 44.8833 80.122 46.5 75.4887 46.5ZM75.4887 15.1C71.4887 15.1 68.1553 16.5167 65.4887 19.35C62.8553 22.1833 61.5387 25.6667 61.5387 29.8C61.5387 33.9 62.8553 37.3667 65.4887 40.2C68.1553 43 71.4887 44.4 75.4887 44.4C79.522 44.4 82.8553 43 85.4887 40.2C88.122 37.3667 89.4387 33.9 89.4387 29.8C89.4387 25.6667 88.122 22.1833 85.4887 19.35C82.8553 16.5167 79.522 15.1 75.4887 15.1Z" fill="black"/>
<path d="M59.4887 46.5C54.8553 46.5 50.972 44.8833 47.8387 41.65C44.7053 38.4167 43.1387 34.4667 43.1387 29.8C43.1387 25.1 44.7053 21.1333 47.8387 17.9C50.972 14.6667 54.8553 13.05 59.4887 13.05C64.122 13.05 68.0053 14.6667 71.1387 17.9C74.272 21.1333 75.8387 25.1 75.8387 29.8C75.8387 34.4667 74.272 38.4167 71.1387 41.65C68.0053 44.8833 64.122 46.5 59.4887 46.5ZM59.4887 15.1C55.4887 15.1 52.1553 16.5167 49.4887 19.35C46.8553 22.1833 45.5387 25.6667 45.5387 29.8C45.5387 33.9 46.8553 37.3667 49.4887 40.2C52.1553 43 55.4887 44.4 59.4887 44.4C63.522 44.4 66.8553 43 69.4887 40.2C72.122 37.3667 73.4387 33.9 73.4387 29.8C73.4387 25.6667 72.122 22.1833 69.4887 19.35C66.8553 16.5167 63.522 15.1 59.4887 15.1Z" fill="black"/>
<path d="M10.3941 47V12.7H13.1441L32.0941 38.05C32.2941 38.2833 32.5441 38.6167 32.8441 39.05C33.1441 39.4833 33.4608 39.9333 33.7941 40.4C34.1275 40.8667 34.4275 41.2833 34.6941 41.65H34.8941C34.8941 41.05 34.8941 40.45 34.8941 39.85C34.8941 39.25 34.8941 38.65 34.8941 38.05V12.7H37.5941V47H35.4441L16.0441 20.95C15.8108 20.65 15.4108 20.1167 14.8441 19.35C14.2775 18.5833 13.7608 17.8833 13.2941 17.25H13.0941C13.0941 17.8833 13.0941 18.5 13.0941 19.1C13.0941 19.7 13.0941 20.3167 13.0941 20.95V47H10.3941Z" fill="black"/>
<path d="M97.3238 47V12.7H100.024V33.45L120.074 12.7H123.624L110.824 26.15L124.324 47H121.024L108.774 28.2L100.024 36.9V47H97.3238Z" fill="black"/>
</svg>
