<svg width="500" height="500" viewBox="0 0 500 500" fill="none" xmlns="http://www.w3.org/2000/svg">
<path d="M249.511 93.5C304.197 93.5001 353.543 103.702 389.076 120.043L390.733 120.813C407.198 128.568 420.367 137.559 429.567 147.228L430.475 148.197L430.477 148.199L431.359 149.176C440.329 159.273 444.52 169.491 444.521 179.395C444.521 189.618 440.054 200.175 430.477 210.59L430.475 210.593C421.241 220.63 407.746 229.962 390.733 237.976L389.076 238.747C353.543 255.088 304.197 265.29 249.511 265.29C195.679 265.29 147.021 255.404 111.621 239.509L109.945 238.747C92.7055 230.819 78.96 221.553 69.4531 211.562L68.5469 210.592L68.5459 210.591C59.2669 200.501 54.7838 190.279 54.5127 180.354L54.5 179.395L54.5127 178.436C54.7837 168.511 59.2667 158.288 68.5459 148.198L68.5469 148.197L69.4531 147.229C78.6534 137.559 91.8231 128.568 108.288 120.813L109.945 120.042C145.477 103.702 194.824 93.5 249.511 93.5Z" fill="white" stroke="#333333" stroke-width="37"/>
<path d="M249.511 183.355C304.111 183.356 353.376 191.959 388.852 205.745L390.506 206.396C407.488 213.156 421 221.047 430.275 229.568H430.276L431.17 230.404C440.252 239.045 444.52 247.848 444.521 256.413C444.521 265.254 439.972 274.349 430.276 283.258L430.275 283.259C421 291.78 407.488 299.671 390.506 306.431L388.852 307.081C353.376 320.867 304.111 329.471 249.511 329.471C195.764 329.471 147.185 321.134 111.842 307.724L110.169 307.081C92.9635 300.395 79.2037 292.561 69.6562 284.081L68.7461 283.259L68.7451 283.258C59.3531 274.628 54.7898 265.824 54.5137 257.243L54.5 256.413L54.5137 255.584C54.7896 247.003 59.3528 238.199 68.7451 229.568H68.7461L69.6562 228.745C79.2037 220.265 92.9635 212.431 110.169 205.745L111.842 205.104C147.185 191.693 195.764 183.355 249.511 183.355Z" fill="white" stroke="#D0E7FF" stroke-width="37"/>
<path d="M249.511 266.803C304.178 266.803 353.519 275.132 389.065 288.479L390.724 289.109C407.195 295.444 420.402 302.8 429.638 310.726L430.549 311.52L430.551 311.521L431.452 312.336C440.597 320.748 444.521 329.012 444.521 336.651C444.52 344.537 440.339 353.088 430.551 361.78L430.549 361.782C421.28 370.011 407.744 377.647 390.724 384.193L389.065 384.823C353.519 398.171 304.178 406.5 249.511 406.5C195.698 406.5 147.046 398.429 111.632 385.445L109.955 384.823C92.156 378.139 78.0408 370.277 68.4727 361.782L68.4697 361.78C58.9874 353.359 54.7673 345.072 54.5127 337.393L54.5 336.651L54.5127 335.91C54.7672 328.231 58.987 319.943 68.4697 311.521L68.4727 311.52L69.3828 310.726C78.9264 302.535 92.7122 294.955 109.955 288.479V288.479L111.632 287.857C147.046 274.873 195.698 266.803 249.511 266.803Z" fill="white" stroke="#333333" stroke-width="37"/>
</svg>
