<svg width="138" height="30" viewBox="0 0 101 22" fill="none" xmlns="http://www.w3.org/2000/svg">
<path d="M43.6543 7.94552C44.0902 7.10011 44.6814 6.45014 45.4301 5.99435C46.1781 5.53918 47.0135 5.31128 47.937 5.31128C48.743 5.31128 49.4492 5.47424 50.0536 5.79892C50.6586 6.12422 51.1431 6.53381 51.5071 7.02832V5.48673H54.2581V16.2959H51.5071V14.7156C51.1562 15.2233 50.6711 15.6422 50.0536 15.9744C49.4355 16.3059 48.7237 16.472 47.917 16.472C47.0066 16.472 46.1768 16.2379 45.4294 15.7696C44.6814 15.3013 44.0895 14.6413 43.6537 13.7891C43.2179 12.9374 43 11.9584 43 10.8526C43 9.74685 43.2185 8.79093 43.6543 7.94552ZM51.1175 9.18491C50.8572 8.71038 50.5063 8.34575 50.0642 8.09225C49.6221 7.83875 49.147 7.712 48.64 7.712C48.133 7.712 47.6647 7.83563 47.2351 8.08288C46.8062 8.33014 46.4578 8.69103 46.1912 9.16555C45.9246 9.6407 45.791 10.2026 45.791 10.8532C45.791 11.5038 45.924 12.0727 46.1912 12.5603C46.4578 13.0479 46.8087 13.4219 47.2445 13.6823C47.6803 13.9427 48.1449 14.0725 48.6394 14.0725C49.1339 14.0725 49.6215 13.9458 50.0636 13.6923C50.5056 13.4388 50.8565 13.0748 51.1169 12.5996C51.3766 12.1251 51.5071 11.5557 51.5071 10.8926C51.5071 10.2295 51.3779 9.65944 51.1175 9.18491Z" fill="#2C2D2E"/>
<path d="M61.1188 5.80964C61.7363 5.4781 62.4425 5.31201 63.2354 5.31201C64.1589 5.31201 64.9943 5.53991 65.7423 5.99508C66.4903 6.45025 67.0816 7.09773 67.518 7.93626C67.9538 8.77543 68.1718 9.74758 68.1718 10.8534C68.1718 11.9591 67.9538 12.9381 67.518 13.7898C67.0822 14.6421 66.4903 15.302 65.7423 15.7703C64.9943 16.2386 64.1589 16.4727 63.2354 16.4727C62.4418 16.4727 61.7425 16.3098 61.1381 15.9851C60.5331 15.6604 60.0424 15.2502 59.6652 14.7557V21.4478H56.9336V5.48809H59.6652V7.04903C60.0161 6.55452 60.5007 6.14119 61.1188 5.80964ZM64.9818 9.16504C64.7152 8.69051 64.3637 8.32962 63.9285 8.08237C63.4927 7.83511 63.0213 7.71149 62.5137 7.71149C62.006 7.71149 61.554 7.83824 61.1188 8.09173C60.683 8.34523 60.3315 8.71299 60.0655 9.19438C59.7989 9.67578 59.6652 10.2415 59.6652 10.8921C59.6652 11.5427 59.7982 12.1084 60.0655 12.5897C60.3321 13.0711 60.683 13.4383 61.1188 13.6924C61.5546 13.9459 62.0191 14.0726 62.5137 14.0726C63.0082 14.0726 63.492 13.9428 63.9285 13.6824C64.3643 13.422 64.7152 13.0518 64.9818 12.5704C65.2484 12.0896 65.382 11.5171 65.382 10.8534C65.382 10.1896 65.2484 9.64019 64.9818 9.16504Z" fill="#2C2D2E"/>
<path d="M73.3393 7.73079V12.96C73.3393 13.324 73.4273 13.5874 73.6027 13.7504C73.7782 13.9134 74.0741 13.9945 74.4906 13.9945H75.7587V16.2966H74.0417C71.7396 16.2966 70.5882 15.1784 70.5882 12.9406V7.73142H69.3008V5.48741H70.5882V2.81445H73.3393V5.48741H75.7587V7.73142L73.3393 7.73079Z" fill="#2C2D2E"/>
<path d="M77.9158 3.74101C77.5967 3.43569 77.4375 3.05482 77.4375 2.59965C77.4375 2.14448 77.5967 1.76424 77.9158 1.45829C78.2342 1.15297 78.6344 1 79.1158 1C79.5972 1 79.9968 1.15297 80.3159 1.45829C80.6343 1.76424 80.7942 2.14448 80.7942 2.59965C80.7942 3.05482 80.6349 3.43569 80.3159 3.74101C79.9968 4.04696 79.5972 4.19931 79.1158 4.19931C78.6344 4.19931 78.2342 4.04633 77.9158 3.74101ZM80.462 5.4874V16.2966H77.7303V5.4874H80.462Z" fill="#2C2D2E"/>
<path d="M88.111 7.73073H86.2185V16.2959H83.4481V7.73073H82.2188V5.48672H83.4481V4.94039C83.4481 3.61359 83.8253 2.63831 84.5795 2.01394C85.3338 1.38956 86.472 1.09673 87.9936 1.13606V3.43814C87.3305 3.42565 86.8685 3.53554 86.6081 3.76968C86.3478 4.00383 86.2179 4.42653 86.2179 5.0378V5.48672H88.1104L88.111 7.73073Z" fill="#2C2D2E"/>
<path d="M90.072 3.74101C89.753 3.43569 89.5938 3.05482 89.5938 2.59965C89.5938 2.14448 89.753 1.76424 90.072 1.45829C90.3904 1.15297 90.7907 1 91.2721 1C91.7535 1 92.1531 1.15297 92.4721 1.45829C92.7906 1.76424 92.9504 2.14448 92.9504 2.59965C92.9504 3.05482 92.7912 3.43569 92.4721 3.74101C92.1531 4.04696 91.7535 4.19931 91.2721 4.19931C90.7907 4.19931 90.3904 4.04633 90.072 3.74101ZM92.6182 5.4874V16.2966H89.8866V5.4874H92.6182Z" fill="#2C2D2E"/>
<path d="M98.4916 7.73079V12.96C98.4916 13.324 98.5796 13.5874 98.7551 13.7504C98.9305 13.9134 99.2265 13.9945 99.6429 13.9945H100.911V16.2966H99.194C96.8919 16.2966 95.7406 15.1784 95.7406 12.9406V7.73142H94.4531V5.48741H95.7406V2.81445H98.4916V5.48741H100.911V7.73142L98.4916 7.73079Z" fill="#2C2D2E"/>
<path d="M18.793 18.156L13.3509 20.268C11.1078 21.1387 8.88718 18.9653 9.77706 16.7707L11.9357 11.446C12.1755 10.8547 12.1932 10.1993 11.9868 9.59666L10.7855 6.09133L10.4584 5.73933C9.98079 5.20199 9.27693 4.86133 8.49199 4.86133C7.47129 4.86133 6.5889 5.43533 6.161 6.27133L0.42109 17.214C0.153309 17.6787 0 18.2153 0 18.7867C0 20.5593 1.46905 21.9967 3.28082 21.9967H21.5662C22.5522 21.9967 23.3514 21.2147 23.3514 20.25C23.3514 19.6953 22.7859 18.9853 22.6748 18.8813L22.5113 18.7053L20.6832 18.1053C20.0665 17.9033 19.3974 17.9214 18.793 18.156Z" fill="#1D38FF"/>
<path d="M38.7421 3.21C38.7421 1.43733 37.273 0 35.4612 0H17.1758C16.1899 0 15.3906 0.782 15.3906 1.74667C15.3906 2.30133 15.6312 2.65333 16.0672 3.11533L16.1688 3.224L17.9151 3.79667C18.5318 3.99867 19.2009 3.98133 19.8053 3.74667L25.2474 1.63467C27.4905 0.764 29.7111 2.93733 28.8212 5.132L26.6626 10.4567C26.4228 11.048 26.4051 11.7033 26.6115 12.306L27.7801 15.7147L28.2843 16.2573C28.7619 16.7947 29.4658 17.1353 30.2507 17.1353C31.2714 17.1353 32.1538 16.5613 32.5817 15.7253L38.3216 4.78267C38.5894 4.318 38.7421 3.78133 38.7421 3.21Z" fill="#1D38FF"/>
<path d="M28.6697 4.88273C29.5561 2.57583 27.3435 0.292057 25.1099 1.20655L19.6889 3.42655C19.0869 3.67322 18.4197 3.69144 17.8062 3.47911L16.0666 2.87716L14.1459 2.21214C11.9991 1.46863 9.95412 3.58002 10.6742 5.79652L10.7048 5.89182L11.9014 9.57641C12.107 10.2106 12.0894 10.8987 11.8505 11.5203L9.70028 17.1173C8.81387 19.4242 11.0265 21.7079 13.2601 20.7935L18.6811 18.5735C19.2831 18.3268 19.9503 18.3086 20.5638 18.5209L22.3848 19.1516L24.2241 19.7886C26.3709 20.5321 28.4159 18.4207 27.6958 16.2042L27.632 16.008L26.468 12.425C26.2623 11.7908 26.28 11.1027 26.5189 10.4811L28.669 4.88413L28.6697 4.88273Z" fill="#FFF050"/>
</svg>
