<svg width="160" height="45" viewBox="0 0 335 63" fill="none" xmlns="http://www.w3.org/2000/svg">
<path d="M123.5 9.5C132.088 9.5 139.868 11.1006 145.502 13.6914L146.024 13.9375C148.432 15.0989 150.409 16.4415 151.849 17.9053L152.148 18.2207L152.149 18.2217L152.434 18.542C153.812 20.1506 154.5 21.8265 154.5 23.5C154.5 25.2849 153.718 27.0725 152.149 28.7783L152.148 28.7793C150.689 30.3658 148.604 31.8182 146.024 33.0625L145.502 33.3086C139.868 35.8994 132.088 37.5 123.5 37.5C115.18 37.5 107.619 35.9972 102.032 33.5479L101.498 33.3086C98.853 32.0923 96.6936 30.6623 95.1514 29.0938L94.8516 28.7783C93.2827 27.0724 92.5 25.285 92.5 23.5C92.5 21.715 93.2827 19.9276 94.8516 18.2217L95.1514 17.9062C96.6936 16.3377 98.853 14.9077 101.498 13.6914L102.032 13.4521C107.619 11.0028 115.18 9.5 123.5 9.5Z" fill="white" stroke="#333333" stroke-width="7"/>
<path d="M123.5 23.5C132.063 23.5 139.818 24.8484 145.433 27.0303L145.953 27.2373C148.523 28.2849 150.611 29.512 152.081 30.8623L152.37 31.1377C153.772 32.5205 154.5 33.9949 154.5 35.5C154.5 37.0051 153.772 38.4795 152.37 39.8623L152.081 40.1377C150.611 41.488 148.523 42.7151 145.953 43.7627L145.433 43.9697C139.818 46.1516 132.063 47.5 123.5 47.5C115.204 47.5 107.667 46.2347 102.1 44.1719L101.567 43.9697C98.7582 42.8781 96.4866 41.578 94.9189 40.1377V40.1367C93.428 38.7666 92.6067 37.3014 92.5098 35.8008L92.5 35.5L92.5098 35.1992C92.6067 33.6986 93.428 32.2334 94.9189 30.8633V30.8623L95.2217 30.5947C96.7732 29.261 98.9338 28.0537 101.567 27.0303L102.1 26.8281C107.667 24.7653 115.204 23.5 123.5 23.5Z" fill="white" stroke="#D0E7FF" stroke-width="7"/>
<path d="M123.5 36.5C132.072 36.5 139.836 37.8052 145.46 39.917L145.98 40.1172C148.555 41.1311 150.646 42.3185 152.115 43.623H152.116L152.407 43.8916C153.816 45.2356 154.5 46.6282 154.5 48C154.5 49.4632 153.722 50.9506 152.116 52.377H152.115C150.646 53.6815 148.555 54.8689 145.98 55.8828L145.46 56.083C139.836 58.1948 132.072 59.5 123.5 59.5C115.197 59.5 107.651 58.2756 102.074 56.2793L101.54 56.083C98.7266 55.0265 96.4521 53.7684 94.8848 52.377H94.8838C93.378 51.0396 92.6 49.6488 92.5088 48.2744L92.5 48L92.5088 47.7256C92.6 46.3512 93.378 44.9604 94.8838 43.623H94.8848L95.1865 43.3633C96.7381 42.0747 98.9024 40.9075 101.54 39.917L102.074 39.7207C107.651 37.7244 115.197 36.5 123.5 36.5Z" fill="white" stroke="#333333" stroke-width="7"/>
<path d="M259 61V0H280.335V34.749L308.014 16.5752H334.193L308.59 34.3283L335 61H309.859L292.445 42.9104L280.335 49.3048V61H259Z" fill="#333333"/>
<path d="M0 61V9.17778H17.9426L19.378 17.8148H20.4545C22.6874 15.3938 25.2791 13.4963 28.2297 12.1222C31.1802 10.6827 34.2903 9.6358 37.5598 8.98148C40.9091 8.32716 44.2185 8 47.488 8C53.6284 8 58.7321 8.8179 62.799 10.4537C66.866 12.0241 69.8963 14.4451 71.8899 17.7167C73.9633 20.9228 75 24.9469 75 29.7889V61H52.9904V32.2426C52.9904 30.4759 52.6714 28.9383 52.0335 27.6296C51.4753 26.2556 50.5981 25.1432 49.4019 24.2926C48.2855 23.3765 46.8501 22.6895 45.0957 22.2315C43.4211 21.7735 41.4673 21.5444 39.2344 21.5444C36.1244 21.5444 33.2536 22.0679 30.622 23.1148C28.0702 24.1617 25.9968 25.634 24.4019 27.5315C22.8868 29.3636 22.1292 31.5228 22.1292 34.0093V61H0Z" fill="#333333"/>
<path d="M209.5 7.2793C218.453 7.2793 226.657 9.16019 232.696 12.2979C238.636 15.3841 243 20.0009 243 25.6455C243 28.8227 241.617 31.6733 239.349 34.1094C241.617 36.5458 243 39.3976 243 42.5752C243 48.2197 238.636 52.8356 232.696 55.9219C226.657 59.0596 218.453 60.9404 209.5 60.9404C200.547 60.9404 192.343 59.0596 186.304 55.9219C180.364 52.8356 176 48.2197 176 42.5752C176 39.3979 177.382 36.5457 179.65 34.1094C177.383 31.6734 176 28.8225 176 25.6455C176 20.0009 180.364 15.3841 186.304 12.2979C192.343 9.16019 200.547 7.2793 209.5 7.2793Z" fill="#333333"/>
<path d="M232.696 12.2979L233.618 10.5231L233.618 10.5231L232.696 12.2979ZM243 25.6455L245 25.6456L245 25.6455L243 25.6455ZM239.349 34.1094L237.885 32.7465L236.616 34.1094L237.885 35.4722L239.349 34.1094ZM243 42.5752L245 42.5753L245 42.5751L243 42.5752ZM232.696 55.9219L233.618 57.6966L233.618 57.6966L232.696 55.9219ZM186.304 55.9219L185.382 57.6966L185.382 57.6966L186.304 55.9219ZM176 42.5752L174 42.5751L174 42.5753L176 42.5752ZM179.65 34.1094L181.114 35.4722L182.383 34.1094L181.114 32.7466L179.65 34.1094ZM176 25.6455L174 25.6455L174 25.6456L176 25.6455ZM186.304 12.2979L185.382 10.5231L185.382 10.5231L186.304 12.2979ZM209.5 7.2793V9.2793C218.199 9.2793 226.074 11.111 231.774 14.0726L232.696 12.2979L233.618 10.5231C227.24 7.20937 218.707 5.2793 209.5 5.2793V7.2793ZM232.696 12.2979L231.774 14.0726C237.479 17.0367 241 21.1297 241 25.6455L243 25.6455L245 25.6455C245 18.872 239.794 13.7316 233.618 10.5231L232.696 12.2979ZM243 25.6455L241 25.6455C241 28.1984 239.899 30.5837 237.885 32.7465L239.349 34.1094L240.812 35.4722C243.335 32.763 245 29.447 245 25.6456L243 25.6455ZM239.349 34.1094L237.885 35.4722C239.899 37.6352 241 40.0216 241 42.5752L243 42.5752L245 42.5751C245 38.7737 243.335 35.4565 240.812 32.7465L239.349 34.1094ZM243 42.5752L241 42.5751C241 47.0907 237.479 51.183 231.774 54.1471L232.696 55.9219L233.618 57.6966C239.793 54.4883 245 49.3486 245 42.5753L243 42.5752ZM232.696 55.9219L231.774 54.1471C226.074 57.1087 218.199 58.9404 209.5 58.9404V60.9404V62.9404C218.707 62.9404 227.24 61.0104 233.618 57.6966L232.696 55.9219ZM209.5 60.9404V58.9404C200.801 58.9404 192.926 57.1087 187.226 54.1471L186.304 55.9219L185.382 57.6966C191.76 61.0104 200.293 62.9404 209.5 62.9404V60.9404ZM186.304 55.9219L187.226 54.1471C181.521 51.183 178 47.0907 178 42.5751L176 42.5752L174 42.5753C174 49.3486 179.207 54.4883 185.382 57.6966L186.304 55.9219ZM176 42.5752L178 42.5752C178 40.0215 179.101 37.6348 181.114 35.4722L179.65 34.1094L178.187 32.7466C175.664 35.4567 174 38.7743 174 42.5751L176 42.5752ZM179.65 34.1094L181.114 32.7466C179.101 30.5841 178 28.1985 178 25.6455L176 25.6455L174 25.6456C174 29.4464 175.664 32.7628 178.187 35.4722L179.65 34.1094ZM176 25.6455L178 25.6455C178 21.1297 181.521 17.0367 187.226 14.0726L186.304 12.2979L185.382 10.5231C179.206 13.7316 174 18.872 174 25.6455L176 25.6455ZM186.304 12.2979L187.226 14.0726C192.926 11.111 200.801 9.2793 209.5 9.2793V7.2793V5.2793C200.293 5.2793 191.76 7.20937 185.382 10.5231L186.304 12.2979Z" fill="#333333"/>
<path d="M210 22.5C216.264 22.5 221.813 23.9862 225.711 26.2598C229.67 28.5691 231.5 31.3923 231.5 34C231.5 36.6077 229.67 39.4309 225.711 41.7402C221.813 44.0138 216.264 45.5 210 45.5C203.736 45.5 198.187 44.0138 194.289 41.7402C190.33 39.4309 188.5 36.6077 188.5 34C188.5 31.3923 190.33 28.5691 194.289 26.2598C198.187 23.9862 203.736 22.5 210 22.5Z" fill="white" stroke="#333333" stroke-width="5"/>
</svg>
